<?xml version="1.0" standalone="no"?>
<!DOCTYPE svg PUBLIC "-//W3C//DTD SVG 20010904//EN"
 "http://www.w3.org/TR/2001/REC-SVG-20010904/DTD/svg10.dtd">
<svg version="1.0" xmlns="http://www.w3.org/2000/svg"
 width="235.000000pt" height="299.000000pt" viewBox="0 0 235.000000 299.000000"
 preserveAspectRatio="xMidYMid meet">

<g transform="translate(0.000000,299.000000) scale(0.100000,-0.100000)"
fill="#000000" stroke="none">
<path d="M1333 2901 c-112 -38 -182 -113 -204 -219 -26 -125 14 -236 150 -417
101 -134 142 -212 171 -328 33 -133 31 -272 -7 -404 -12 -45 -18 -53 -39 -53
l-24 0 0 240 0 240 -170 0 -170 0 0 -240 0 -240 -255 0 -255 0 0 -175 0 -175
255 0 255 0 0 -39 0 -39 -67 -25 c-92 -34 -95 -35 -200 -47 -168 -19 -340 22
-491 117 -47 29 -87 52 -89 49 -7 -7 83 -78 149 -118 306 -187 723 -131 969
128 104 111 163 219 200 364 18 72 21 103 16 210 -9 219 -51 317 -237 560
-128 166 -165 267 -141 382 29 138 133 216 297 225 160 9 277 -32 377 -134 73
-74 101 -113 142 -193 142 -282 153 -675 24 -919 -22 -42 -55 -93 -73 -114
l-33 -37 -36 15 c-120 50 -274 -35 -293 -163 -18 -123 65 -235 184 -249 131
-15 242 82 242 212 0 55 -26 120 -58 149 l-21 19 35 41 c46 53 119 203 139
286 25 101 31 335 11 450 -41 239 -136 427 -277 547 -98 83 -186 113 -328 112
-64 0 -113 -6 -148 -18z m510 -1417 c45 -23 66 -44 88 -86 35 -68 17 -170 -38
-220 -81 -73 -220 -58 -279 31 -67 102 -26 235 86 280 39 15 108 13 143 -5z"/>
<path d="M1695 1430 c-60 -40 -80 -111 -48 -177 59 -126 253 -78 253 62 0 105
-119 172 -205 115z"/>
<path d="M1550 1459 c0 -5 5 -7 10 -4 6 3 10 8 10 11 0 2 -4 4 -10 4 -5 0 -10
-5 -10 -11z"/>
<path d="M1482 1286 c-18 -35 -49 -82 -68 -105 l-36 -41 102 0 101 0 -27 46
c-17 30 -29 68 -33 105 l-6 59 -33 -64z"/>
<path d="M1295 1058 c-42 -35 -105 -77 -157 -101 l-87 -42 -1 -75 c0 -56 5
-88 22 -127 21 -48 26 -53 56 -53 l32 0 0 60 0 60 45 0 45 0 0 -60 0 -60 60 0
60 0 0 230 c0 127 -1 230 -2 229 -2 0 -34 -28 -73 -61z"/>
<path d="M264 683 c83 -195 76 -183 106 -183 25 0 30 9 82 130 l56 130 -27 0
c-24 0 -30 -8 -65 -90 -22 -49 -42 -90 -45 -90 -3 0 -22 40 -42 88 -34 81 -39
87 -68 90 l-31 3 34 -78z"/>
<path d="M540 630 l0 -130 30 0 30 0 0 130 0 130 -30 0 -30 0 0 -130z"/>
<path d="M632 738 c2 -19 10 -23 38 -25 19 0 38 -2 43 -2 4 -1 7 -48 7 -106
l0 -105 25 0 25 0 0 105 c0 58 3 105 8 106 4 1 23 2 42 3 28 1 36 6 38 24 3
22 2 22 -113 22 -115 0 -116 0 -113 -22z"/>
<path d="M943 688 c-17 -40 -43 -99 -57 -130 l-26 -58 29 0 c23 0 31 6 40 30
10 29 12 30 73 30 61 0 64 -1 75 -30 9 -23 17 -30 38 -30 32 0 32 -2 -34 146
-44 99 -51 109 -78 112 -27 3 -30 -2 -60 -70z m96 -75 c1 -9 -13 -13 -39 -13
-22 0 -40 2 -40 4 0 2 10 26 21 53 l21 48 18 -40 c10 -22 19 -46 19 -52z"/>
<path d="M1180 630 l0 -130 90 0 c89 0 90 0 90 25 0 24 -2 25 -65 25 l-65 0 0
105 0 105 -25 0 -25 0 0 -130z"/>
<path d="M1400 630 l0 -130 30 0 30 0 0 130 0 130 -30 0 -30 0 0 -130z"/>
<path d="M1530 630 l0 -130 25 0 c23 0 24 2 27 81 l3 82 65 -82 c46 -58 71
-81 88 -81 22 0 22 2 22 130 l0 130 -25 0 c-24 0 -25 -2 -25 -75 0 -41 -4 -75
-9 -75 -4 0 -36 34 -70 75 -39 48 -69 75 -81 75 -19 0 -20 -7 -20 -130z"/>
<path d="M1830 630 l0 -130 25 0 c22 0 25 4 25 33 0 22 8 41 21 53 23 21 23
21 86 -59 17 -22 29 -28 52 -25 l30 3 -55 68 c-62 76 -63 67 10 145 l40 42
-31 0 c-25 0 -42 -12 -86 -60 -31 -33 -58 -60 -61 -60 -4 0 -6 27 -6 60 0 57
-1 60 -25 60 l-25 0 0 -130z"/>
<path d="M130 175 c0 -30 5 -55 10 -55 6 0 10 11 10 25 0 20 5 25 25 25 20 0
25 -5 25 -25 0 -14 5 -25 10 -25 6 0 10 25 10 55 0 30 -4 55 -10 55 -5 0 -10
-11 -10 -25 0 -20 -5 -25 -25 -25 -20 0 -25 5 -25 25 0 14 -4 25 -10 25 -5 0
-10 -25 -10 -55z"/>
<path d="M630 175 c0 -30 5 -55 10 -55 6 0 10 25 10 55 0 30 -4 55 -10 55 -5
0 -10 -25 -10 -55z"/>
<path d="M870 175 c0 -59 17 -76 22 -22 2 20 8 32 18 32 10 0 16 -12 18 -32 4
-40 22 -44 22 -5 0 38 -14 56 -39 49 -16 -4 -21 -1 -21 14 0 10 -4 19 -10 19
-5 0 -10 -25 -10 -55z"/>
<path d="M1162 214 c-12 -8 -22 -26 -22 -39 0 -30 41 -59 70 -50 30 10 24 20
-12 20 -30 0 -33 3 -33 30 0 27 3 30 33 30 34 0 42 9 16 19 -22 9 -27 8 -52
-10z"/>
<path d="M739 208 c-4 -48 11 -88 34 -88 7 0 7 4 -1 12 -15 15 -16 58 -1 58 6
0 4 7 -5 15 -18 18 -26 19 -27 3z"/>
<path d="M2133 205 c-8 -9 -9 -16 -3 -20 6 -3 10 -17 10 -31 0 -14 7 -27 15
-31 23 -8 33 7 12 18 -22 13 -22 35 1 48 16 10 16 10 -1 11 -10 0 -15 5 -12
10 9 15 -8 11 -22 -5z"/>
<path d="M320 185 c-25 -31 9 -76 46 -60 17 8 16 9 -8 13 -38 5 -36 22 2 22
32 0 37 9 18 28 -16 16 -43 15 -58 -3z m45 -5 c3 -5 -3 -10 -14 -10 -12 0 -21
5 -21 10 0 6 6 10 14 10 8 0 18 -4 21 -10z"/>
<path d="M498 193 c23 -5 31 -23 10 -23 -10 0 -9 -3 1 -9 7 -5 10 -14 7 -20
-10 -16 -26 -14 -26 4 0 8 -5 15 -11 15 -6 0 -9 -8 -7 -17 2 -13 13 -18 36
-18 32 -1 33 1 30 35 -3 31 -6 35 -33 37 -20 1 -23 0 -7 -4z"/>
<path d="M1320 181 c-19 -36 14 -70 53 -55 22 8 31 42 17 59 -18 21 -57 18
-70 -4z m58 -19 c3 -16 -2 -22 -17 -22 -24 0 -35 15 -27 36 9 23 40 13 44 -14z"/>
<path d="M1480 159 c0 -47 17 -52 22 -6 2 20 8 32 18 32 10 0 16 -12 18 -32 2
-18 8 -33 13 -33 6 0 9 17 7 38 -3 35 -5 37 -40 39 -38 1 -38 1 -38 -38z"/>
<path d="M1650 159 c0 -47 17 -52 22 -6 2 20 8 32 18 32 10 0 16 -12 18 -32 2
-18 8 -33 13 -33 6 0 9 17 7 38 -3 35 -5 37 -40 39 -38 1 -38 1 -38 -38z"/>
<path d="M1824 186 c-15 -38 18 -76 52 -61 17 8 16 9 -8 13 -38 5 -36 22 2 22
28 0 30 2 20 20 -12 23 -58 27 -66 6z m51 -6 c4 -6 -5 -10 -20 -10 -15 0 -24
4 -20 10 3 6 12 10 20 10 8 0 17 -4 20 -10z"/>
<path d="M1980 181 c-20 -37 15 -70 56 -54 16 6 14 8 -11 13 -21 4 -30 11 -30
25 0 16 6 20 28 18 15 -1 25 2 22 8 -11 16 -54 10 -65 -10z"/>
</g>
</svg>
